<?xml version="1.0" encoding="UTF-8"?> <svg xmlns="http://www.w3.org/2000/svg" width="542" height="245" viewBox="0 0 542 245" fill="none"><g clip-path="url(#clip0_58_1943)"><rect width="542" height="245" fill="#FA7145"></rect><path d="M465.722 472.063L256.732 310.545C255.837 309.853 256.598 308.44 257.668 308.808L455.416 376.716C456.454 377.072 457.225 375.739 456.399 375.017L233.082 179.859C232.236 179.119 233.065 177.762 234.109 178.176L519.22 291.378C520.31 291.811 521.126 290.338 520.181 289.643L313.265 137.475C312.395 136.835 313.016 135.462 314.071 135.692L434.721 162.039C435.782 162.271 436.399 160.882 435.517 160.249L279.818 48.5846C278.907 47.9318 279.594 46.5051 280.672 46.8096L471.534 100.739C472.651 101.054 473.319 99.5329 472.33 98.9247L222.896 -54.5286C221.939 -55.1173 222.531 -56.5931 223.629 -56.3582L513.793 5.66987C514.936 5.91421 515.499 4.33458 514.458 3.80187L268.611 -122.081C267.59 -122.604 268.11 -124.155 269.24 -123.956L418.396 -97.7298C419.431 -97.5477 420.01 -98.8824 419.169 -99.5141L326.156 -169.406" stroke="#FF8963" stroke-width="40" stroke-linecap="round" stroke-linejoin="round"></path></g><defs><clipPath id="clip0_58_1943"><rect width="542" height="245" fill="white"></rect></clipPath></defs></svg> 