<?xml version="1.0" encoding="UTF-8"?> <svg xmlns="http://www.w3.org/2000/svg" width="36" height="36" viewBox="0 0 36 36" fill="none"><path d="M15.4348 5.78598C16.316 3.40467 19.684 3.40467 20.5652 5.78599L22.7348 11.6492C23.0118 12.3979 23.6021 12.9882 24.3508 13.2652L30.214 15.4348C32.5953 16.316 32.5953 19.684 30.214 20.5652L24.3508 22.7348C23.6021 23.0118 23.0118 23.6021 22.7348 24.3508L20.5652 30.214C19.684 32.5953 16.316 32.5953 15.4348 30.214L13.2652 24.3508C12.9882 23.6021 12.3979 23.0118 11.6492 22.7348L5.78598 20.5652C3.40467 19.684 3.40467 16.316 5.78599 15.4348L11.6492 13.2652C12.3979 12.9882 12.9882 12.3979 13.2652 11.6492L15.4348 5.78598Z" fill="white"></path></svg> 